# xmcd CD database file
#
# Track frame offsets:
#	150
#	11852
#	28231
#	46266
#	60453
#	77632
#	87897
#	106491
#	128401
#	140195
#	163382
#	175666
#	188043
#	205620
#	233877
#	255432
#	276561
#	295383
#	310175
#
# Disc length: 4325 seconds
#
# Revision: 0
# Processed by: cddbd v1.5.2PL0 Copyright (c) Steve Scherf et al.
# Submitted via: CDex 1.70beta2
#
DISCID=0f10e313
DTITLE=Steve Earl - The Greatest Hits
DYEAR=1900
DGENRE=Country
TTITLE0=Guitar Town
TTITLE1=Hillbilly Highway
TTITLE2=Good Ol'Boy
TTITLE3=My Ol' Friend The Blues
TTITLE4=Someday
TTITLE5=Think It Over
TTITLE6=Fearless Heart
TTITLE7=Little Rock'N'Roller
TTITLE8=Down The Road
TTITLE9=The Other Kind
TTITLE10=Promise You Anything
TTITLE11=Hopeless Romantics
TTITLE12=This Highway's Mine
TTITLE13=Billy Austin
TTITLE14=Justice In Ontario
TTITLE15=Have Mercy
TTITLE16=When The Pepople Find Out
TTITLE17=Regular Guy
TTITLE18=West Nashville Boogie
EXTD=
EXTT0=
EXTT1=
EXTT2=
EXTT3=
EXTT4=
EXTT5=
EXTT6=
EXTT7=
EXTT8=
EXTT9=
EXTT10=
EXTT11=
EXTT12=
EXTT13=
EXTT14=
EXTT15=
EXTT16=
EXTT17=
EXTT18=
PLAYORDER=
